#!OML:ASF F:\VICON\USERDATA\INSTALL\rory3\rory3.ASF
:FULLY-SPECIFIED
:DEGREES
726
root -6.36575 17.8494 -5.96016 -5.07655 39.7957 -3.63265
lowerback 11.4206 -1.3831 -0.907363
upperback 1.28972 -1.79851 2.30451
thorax -4.94974 -0.837703 3.20232
lowerneck 3.2864 -22.5277 -15.1102
upperneck 22.6442 -36.0303 19.8236
head 13.9104 -16.4349 4.00367
rclavicle 9.59136e-015 1.45113e-014
rhumerus -32.5116 39.1657 -99.611
rradius 92.0446
rwrist 3.94541
rhand -14.2925 9.1521
rfingers 7.12502
rthumb 11.8471 -20.4928
lclavicle 9.59136e-015 1.45113e-014
lhumerus -39.1357 -23.4922 99.427
lradius 92.4881
lwrist 0.343191
lhand -17.8076 35.885
lfingers 7.12502
lthumb 8.45599 65.6957
rfemur 4.78784 2.69033 26.9288
rtibia 21.7797
rfoot -14.8735 -0.414001
rtoes -1.14253
lfemur -22.4697 1.04797 -12.2587
ltibia 29.191
lfoot -1.22406 -13.8775
ltoes -19.045
727
root -6.46305 17.8574 -6.0548 -5.04236 40.031 -3.57478
lowerback 11.594 -1.37227 -0.843318
upperback 1.23444 -1.77856 2.23692
thorax -5.10962 -0.826946 3.09963
lowerneck 3.22461 -22.3738 -15.149
upperneck 23.0911 -35.821 19.5704
head 14.0136 -16.3288 3.97475
rclavicle -4.68386e-014 1.31198e-014
rhumerus -32.8239 39.2 -99.7043
rradius 92.0259
rwrist 4.2726
rhand -14.9861 9.1239
rfingers 7.12502
rthumb 11.1782 -20.5583
lclavicle -4.68386e-014 1.31198e-014
lhumerus -39.4032 -23.7149 99.6101
lradius 92.474
lwrist 0.391337
lhand -17.5048 35.6925
lfingers 7.12502
lthumb 8.74821 65.4912
rfemur 4.35726 2.56506 26.9505
rtibia 21.7034
rfoot -14.7334 -0.782934
rtoes 0.0523757
lfemur -22.8208 1.59082 -12.463
ltibia 31.5058
lfoot -1.90562 -13.7444
ltoes -19.4243
728
root -6.55439 17.8641 -6.14966 -4.85727 40.4237 -3.35274
lowerback 11.6279 -1.41601 -0.94158
upperback 1.19883 -1.85126 2.19736
thorax -5.15984 -0.860229 3.12706
lowerneck 3.12348 -22.2192 -15.2639
upperneck 23.5343 -35.5789 19.2423
head 14.1115 -16.2168 3.92887
rclavicle 3.74709e-014 -1.66979e-014
rhumerus -33.069 39.2719 -99.6695
rradius 92.0426
rwrist 4.35235
rhand -15.3819 8.81971
rfingers 7.12502
rthumb 10.7964 -20.8828
lclavicle 3.74709e-014 -1.66979e-014
lhumerus -39.6011 -23.9031 99.8085
lradius 92.4538
lwrist 0.446775
lhand -17.3377 35.8811
lfingers 7.12502
lthumb 8.90953 65.673
rfemur 3.83403 2.37638 26.8003
rtibia 21.653
rfoot -14.7649 -1.19128
rtoes 2.23895
lfemur -23.2049 1.88694 -12.817
ltibia 33.8977
lfoot -2.52069 -13.6064
ltoes -19.8486
729
root -6.646 17.8673 -6.2433 -4.65122 40.7151 -3.06419
lowerback 11.6375 -1.38384 -1.15165
upperback 1.18247 -1.84024 2.12128
thorax -5.17883 -0.850944 3.16493
lowerneck 3.17397 -22.1134 -15.1251
upperneck 23.6805 -35.3332 18.9156
head 13.9935 -16.1229 3.88648
rclavicle -5.2181e-015 9.34288e-015
rhumerus -33.2863 39.0431 -99.6549
rradius 92.0879
rwrist 4.03604
rhand -14.9075 8.89078
rfingers 7.12502
rthumb 11.2539 -20.7873
lclavicle -5.2181e-015 9.34288e-015
lhumerus -39.806 -24.2137 100.012
lradius 92.4043
lwrist 0.464399
lhand -17.266 36.0984
lfingers 7.12502
lthumb 8.97871 65.8874
rfemur 3.29662 2.29741 26.6184
rtibia 21.6626
rfoot -14.9353 -1.54027
rtoes 4.1918
lfemur -23.4686 2.20961 -13.1568
ltibia 36.2965
lfoot -3.02426 -13.528
ltoes -19.7248
730
root -6.73393 17.8698 -6.3395 -4.61 40.8787 -2.98081
lowerback 11.6758 -1.34451 -1.11126
upperback 1.17557 -1.78742 2.04114
thorax -5.21448 -0.825963 3.05104
lowerneck 3.25337 -21.9713 -14.9941
upperneck 23.7128 -35.0645 18.7576
head 13.8637 -16.0167 3.91014
rclavicle -1.17171e-013 2.78299e-015
rhumerus -33.5141 38.702 -99.7043
rradius 92.1
rwrist 3.81046
rhand -14.6517 8.96426
rfingers 7.12502
rthumb 11.5007 -20.7002
lclavicle -1.17171e-013 2.78299e-015
lhumerus -39.9707 -24.506 100.182
lradius 92.3204
lwrist 0.379011
lhand -17.2702 35.9855
lfingers 7.12502
lthumb 8.97465 65.7746
rfemur 2.79019 2.33775 26.6071
rtibia 21.719
rfoot -14.984 -1.86881
rtoes 4.70115
lfemur -23.6409 2.58219 -13.3061
ltibia 38.6654
lfoot -3.64293 -13.5343
ltoes -20.1055
731
root -6.82335 17.8707 -6.43189 -4.70219 40.9563 -2.95448
lowerback 11.8445 -1.29057 -1.06662
upperback 1.18136 -1.71242 1.99254
thorax -5.30954 -0.788806 2.96854
lowerneck 3.09979 -21.7927 -15.0017
upperneck 24.0183 -34.7854 18.5422
head 13.9121 -15.8794 3.89497
rclavicle 8.87077e-015 4.37326e-015
rhumerus -33.8584 38.4247 -99.7487
rradius 92.2005
rwrist 3.56536
rhand -14.7717 8.92911
rfingers 7.12502
rthumb 11.385 -20.7418
lclavicle 8.87077e-015 4.37326e-015
lhumerus -40.2005 -24.7914 100.363
lradius 92.2966
lwrist 0.290963
lhand -17.1246 35.9014
lfingers 7.12502
lthumb 9.11507 65.6844
rfemur 2.42152 2.667 26.7015
rtibia 21.7623
rfoot -14.8892 -2.31815
rtoes 5.15463
lfemur -23.6485 3.01887 -13.3359
ltibia 40.9903
lfoot -4.1548 -13.7254
ltoes -20.223
